<?xml version="1.0" encoding="utf-8" ?>
<svg xmlns="http://www.w3.org/2000/svg" xmlns:xlink="http://www.w3.org/1999/xlink" width="1024" height="1024">
	<path fill="#34A1DB" d="M0 0L1024 0L1024 1024L0 1024L0 0Z"/>
	<path fill="#020202" d="M179.521 64.1216C184.056 63.6763 188.596 63.8401 192.952 65.3016C198.469 67.1529 203.762 70.2009 208.949 72.8313Q219.52 78.2246 230.183 83.4316L317.281 126.31C332.018 119.585 346.993 113.138 362.319 107.87Q366.088 106.56 369.88 105.316Q373.671 104.072 377.484 102.895Q381.297 101.717 385.129 100.606Q388.962 99.4956 392.813 98.4517Q396.665 97.4079 400.534 96.4315Q404.403 95.455 408.288 94.5462Q412.174 93.6374 416.074 92.7966Q419.975 91.9557 423.89 91.183Q427.805 90.4103 431.732 89.706Q435.66 89.0018 439.599 88.3661Q443.539 87.7305 447.489 87.1637Q451.439 86.5969 455.398 86.0991Q459.357 85.6013 463.324 85.1726Q467.291 84.744 471.266 84.3846Q475.24 84.0253 479.22 83.7353Q483.199 83.4453 487.184 83.2248Q491.168 83.0043 495.155 82.8534Q499.143 82.7024 503.132 82.6211Q507.122 82.5397 511.112 82.528Q515.102 82.5163 519.092 82.5742Q523.082 82.6321 527.071 82.7596Q531.059 82.8871 535.044 83.0841Q539.03 83.2812 543.011 83.5478Q546.993 83.8143 550.969 84.1503Q554.945 84.4863 558.915 84.8916Q562.884 85.297 566.846 85.7715Q570.808 86.246 574.762 86.7896Q578.715 87.3331 582.658 87.9456Q586.601 88.5581 590.533 89.2392Q594.464 89.9204 598.384 90.67Q602.303 91.4197 606.209 92.2376Q610.114 93.0556 614.005 93.9415Q625.351 96.4159 636.536 99.5402Q647.72 102.665 658.706 106.428Q669.692 110.192 680.443 114.583Q691.193 118.975 701.673 123.978C712.874 119.316 723.764 113.248 734.65 107.857L790.202 80.6258C799.647 75.9823 812.199 68.5127 822.035 65.8822C826.249 64.7551 831.252 64.8595 835.498 65.7631Q836.178 65.9084 836.85 66.087Q837.522 66.2656 838.185 66.4771Q838.847 66.6886 839.499 66.9325Q840.15 67.1765 840.788 67.4522Q841.427 67.7279 842.051 68.0348Q842.675 68.3416 843.283 68.6789Q843.892 69.0161 844.482 69.3829Q845.073 69.7498 845.645 70.1452Q846.217 70.5407 846.769 70.9639Q847.321 71.3871 847.851 71.837Q848.382 72.2869 848.889 72.7624Q849.397 73.2379 849.88 73.7378Q850.364 74.2377 850.822 74.7609Q851.28 75.284 851.712 75.8291Q852.144 76.3742 852.548 76.9399Q852.953 77.5056 853.329 78.0906Q853.876 78.9175 854.36 79.7826Q854.844 80.6477 855.263 81.5463Q855.682 82.4448 856.033 83.3718Q856.384 84.2989 856.666 85.2494Q856.948 86.1998 857.158 87.1685Q857.369 88.1373 857.507 89.1189Q857.646 90.1005 857.711 91.0897Q857.777 92.0789 857.769 93.0702C857.763 103.441 852.844 122.65 850.657 133.651Q843.119 172.054 835.183 210.376Q844.027 218.501 852.427 227.085Q855.366 230.017 858.249 233.004Q861.132 235.99 863.959 239.03Q866.787 242.07 869.557 245.162Q872.327 248.254 875.038 251.397Q877.75 254.54 880.403 257.733Q883.056 260.926 885.648 264.168Q888.241 267.41 890.773 270.7Q893.305 273.99 895.775 277.327Q898.245 280.663 900.652 284.045Q903.06 287.427 905.403 290.853Q907.747 294.28 910.027 297.749Q912.306 301.219 914.521 304.73Q916.735 308.241 918.884 311.793Q921.032 315.345 923.114 318.937Q925.196 322.528 927.211 326.158Q929.225 329.788 931.172 333.454Q933.118 337.121 934.996 340.823Q936.874 344.526 938.682 348.262Q940.49 351.999 942.229 355.769Q943.967 359.538 945.635 363.34Q947.303 367.142 948.899 370.974Q950.496 374.805 952.021 378.667Q953.546 382.528 954.998 386.417Q956.451 390.305 957.83 394.221Q959.21 398.136 960.517 402.076Q961.823 406.017 963.056 409.981Q964.289 413.945 965.447 417.931Q966.606 421.917 967.69 425.924Q968.774 429.932 969.783 433.958Q970.792 437.985 971.726 442.03Q972.66 446.075 973.518 450.137Q974.377 454.198 975.159 458.275C980.888 489.277 982.955 520.222 982.838 551.7C987.736 554.365 992.61 557.498 996.892 561.074C1005.61 568.356 1011.86 578.667 1012.84 590.107C1014.48 609.155 1003.02 621.016 991.896 634.73Q981.372 647.708 970.519 660.412L988.328 692.623C993.447 701.888 1000.37 712.071 1002.94 722.388C1004.02 726.724 1003.89 731.756 1002.96 736.115C1000.38 748.243 991.882 757.674 981.713 764.228C970.637 771.366 943.265 784.441 930.749 786.412C925.672 787.211 921.039 786.832 916.045 785.756C894.33 823.548 868.141 858.07 836.113 887.763Q826.34 897.254 816.008 906.131Q805.675 915.009 794.82 923.24Q783.965 931.471 772.628 939.024Q761.292 946.578 749.516 953.427Q744.501 956.355 739.415 959.159Q734.33 961.962 729.176 964.639Q724.023 967.317 718.805 969.865Q713.587 972.414 708.308 974.834Q703.029 977.253 697.691 979.541Q692.354 981.829 686.961 983.985Q681.569 986.14 676.125 988.162Q670.681 990.184 665.189 992.07Q659.697 993.957 654.159 995.707Q648.622 997.458 643.044 999.071Q637.465 1000.68 631.848 1002.16Q626.231 1003.63 620.58 1004.97Q614.928 1006.3 609.245 1007.5Q603.562 1008.7 597.852 1009.75Q592.141 1010.8 586.406 1011.72Q580.671 1012.63 574.915 1013.4Q569.16 1014.17 563.387 1014.8Q557.614 1015.43 551.827 1015.92Q546.04 1016.4 540.243 1016.75Q534.446 1017.09 528.642 1017.29Q522.838 1017.49 517.031 1017.55Q511.224 1017.6 505.418 1017.52Q499.611 1017.43 493.808 1017.2Q488.006 1016.97 482.211 1016.59Q476.415 1016.22 470.631 1015.7Q464.847 1015.19 459.077 1014.53Q453.308 1013.87 447.556 1013.07Q441.805 1012.26 436.075 1011.32Q430.345 1010.38 424.64 1009.29Q418.935 1008.21 413.258 1006.98Q407.582 1005.76 401.937 1004.39Q396.293 1003.02 390.684 1001.52Q385.116 1000.06 379.587 998.466Q374.057 996.87 368.569 995.136Q363.081 993.402 357.638 991.532Q352.195 989.662 346.8 987.656Q341.405 985.651 336.062 983.511Q330.72 981.371 325.432 979.099Q320.144 976.826 314.915 974.423Q309.685 972.019 304.517 969.485Q299.35 966.952 294.247 964.29Q289.144 961.628 284.109 958.839Q279.074 956.051 274.111 953.138Q269.147 950.224 264.258 947.188Q259.368 944.152 254.556 940.994Q249.744 937.837 245.013 934.56Q240.281 931.283 235.633 927.89Q230.984 924.496 226.422 920.987Q221.86 917.478 217.387 913.856Q212.914 910.235 208.533 906.503Q204.151 902.771 199.865 898.93Q195.578 895.09 191.388 891.143Q187.199 887.197 183.109 883.147Q179.02 879.098 175.033 874.947Q171.045 870.797 167.163 866.548Q163.281 862.299 159.506 857.955Q155.73 853.61 152.065 849.173Q148.4 844.736 144.846 840.208Q141.293 835.681 137.854 831.066Q134.414 826.451 131.091 821.752Q127.768 817.053 124.564 812.272Q121.359 807.491 118.275 802.632Q115.191 797.773 112.229 792.838Q109.267 787.903 106.429 782.896C92.5263 785.785 75.3174 788.581 61.8728 782.929C52.2807 778.896 44.3339 771.204 40.5227 761.468C36.4617 751.095 35.1414 738.388 32.9672 727.472L20.5567 665.872L6.9837 601.736C4.96055 591.754 2.31956 581.397 1.43023 571.257C0.843486 564.567 1.83745 557.575 4.7119 551.474C11.5729 536.912 28.1149 528.677 42.4966 523.481C43.6372 424.97 82.6175 331.071 145.437 256.026C156.171 243.203 168.321 231.834 179.915 219.831C178.233 209.37 175.458 198.915 173.241 188.544L160.586 128.103C158.39 117.39 154.765 105.458 154.603 94.5493C154.512 88.4321 155.661 83.1394 158.86 77.8888C163.512 70.2534 171.1 66.2038 179.521 64.1216Z"/>
	<path fill="#E35051" d="M180.029 70.5668C183.524 70.3473 186.98 70.003 190.336 71.2547C197.205 73.8158 203.69 77.4698 210.246 80.7254L247.221 99.0845L298.265 124.26C318.96 134.304 342.015 145.257 361.736 157.02C353.061 163.3 342.85 168.54 333.622 174.008C326.019 170.064 318.036 166.714 310.189 163.282C268.808 145.182 225.772 132.976 181.477 124.473Q184.482 142.145 188.536 159.607Q198.705 208.313 210.66 256.611C214.388 271.294 217.379 289.946 225.5 302.666C221.987 313.209 217.76 323.636 213.998 334.111Q191.328 244.209 172.368 153.453L164.481 114.884C163.067 107.874 160.919 100.225 160.642 93.0799C160.489 89.1318 161.765 85.0327 163.736 81.6366C167.384 75.3482 173.199 72.2537 180.029 70.5668Z"/>
	<path fill="#E35051" d="M825.246 71.6111C828.501 71.4711 831.495 71.3697 834.691 72.1883C840.294 73.623 845.14 76.8761 848.04 81.9554C850.286 85.8887 850.986 89.6916 850.768 94.1684C850.312 103.529 847.707 112.999 845.937 122.191C842.92 137.863 840.058 153.531 836.808 169.158C824.996 225.943 813.338 283.271 797.415 339.075C793.036 327.584 788.383 316.245 783.805 304.836C794.928 259.297 808.167 214.257 820.259 168.965C825.388 153.772 829.893 137.684 833.579 122.073C818.57 125.401 803.706 130.601 789.017 135.144L711.255 159.508C698.496 163.549 685.92 168.128 673.035 171.761C665.428 167.577 658.365 162.464 650.603 158.556C662.415 151.007 675.798 144.991 688.247 138.539Q734.22 115.011 780.739 92.5831Q793.171 86.5935 805.516 80.426C811.85 77.2851 818.424 73.5139 825.246 71.6111Z"/>
	<path fill="#FDFDFD" d="M495.193 89.2772Q505.445 88.8945 515.703 88.9742Q525.962 89.0539 536.206 89.5959Q546.45 90.1378 556.66 91.141Q566.87 92.1441 577.024 93.6063Q587.178 95.0685 597.255 96.9868Q607.333 98.9052 617.314 101.276Q627.296 103.646 637.16 106.464Q647.024 109.282 656.751 112.542C669.306 116.646 683.046 121.141 694.592 127.572C678.107 137.597 659.936 144.98 643.346 154.902Q639.907 153.116 636.422 151.423Q632.936 149.729 629.407 148.129Q625.878 146.529 622.308 145.023Q618.738 143.517 615.129 142.106Q611.519 140.696 607.874 139.382Q604.229 138.068 600.55 136.851Q596.871 135.634 593.161 134.515Q589.451 133.397 585.713 132.377Q581.974 131.357 578.21 130.438Q574.446 129.518 570.659 128.698Q566.871 127.878 563.064 127.16Q559.256 126.441 555.431 125.824Q551.605 125.207 547.764 124.691Q543.924 124.176 540.071 123.763Q536.218 123.35 532.356 123.039Q528.493 122.729 524.624 122.521C469.543 119.955 418.269 129.698 368.546 153.804C355.255 144.57 338.377 137.727 324.088 129.724C379.725 106.204 434.466 90.9445 495.193 89.2772Z"/>
	<path fill="#0A73C7" d="M201.922 406.632Q201.694 411.023 201.624 415.419Q201.554 419.815 201.643 424.21Q201.731 428.606 201.978 432.996Q202.225 437.385 202.631 441.763Q203.036 446.141 203.599 450.501Q204.162 454.862 204.881 459.199Q205.601 463.536 206.477 467.845Q207.352 472.153 208.383 476.428Q209.413 480.702 210.597 484.936Q211.781 489.17 213.116 493.359Q214.452 497.547 215.938 501.685Q217.424 505.823 219.058 509.905Q220.692 513.986 222.472 518.007Q224.252 522.026 226.176 525.98Q228.1 529.933 230.166 533.814Q232.231 537.696 234.435 541.5C217.293 541.451 203.109 546.232 188.095 554.165C172.778 531.367 155.182 519.94 127.997 514.667C116.957 512.525 105.029 511.758 93.7704 512.426C95.0109 487.124 99.6934 460.778 106.707 436.445C109.51 426.723 113.252 417.304 116.041 407.583Q143.557 407.362 171.074 407.483C181.065 407.507 191.267 407.956 201.234 407.363L201.175 406.856L201.839 406.971L201.461 407.051L201.922 406.632Z"/>
	<path fill="#052D61" d="M807.559 407.901C825.22 407.206 842.951 407.463 860.624 407.481C876.704 407.497 892.858 407.226 908.93 407.695C924.614 449.471 931.862 496.276 932.057 540.836C923.288 545.271 917.621 549.709 911.724 557.623C908.724 552.803 905.458 547.997 901.623 543.798C895.815 537.44 889.265 533.951 880.522 533.627C862.542 532.961 843.321 542.579 830.474 554.596C812.337 550.637 792.778 550.018 774.268 550.177C778.139 540.757 783.227 531.83 787.054 522.334Q788.438 518.946 789.733 515.522Q791.027 512.099 792.232 508.642Q793.436 505.186 794.548 501.699Q795.661 498.212 796.682 494.697Q797.702 491.182 798.63 487.641Q799.558 484.1 800.392 480.537Q801.226 476.973 801.966 473.388Q802.707 469.804 803.352 466.201Q803.998 462.598 804.548 458.979Q805.099 455.361 805.554 451.729Q806.009 448.097 806.368 444.455Q806.728 440.812 806.991 437.162Q807.255 433.511 807.422 429.855Q807.589 426.198 807.66 422.539Q807.731 418.879 807.706 415.219Q807.681 411.559 807.559 407.901Z"/>
	<path fill="#B82B2D" d="M742.239 247.953C751.486 258.753 758.854 271.934 765.503 284.441C790.923 332.256 803.767 382.073 799.508 436.464C796.91 469.625 787.399 508.033 771.065 537.155C766.811 544.739 761.727 551.674 756.396 558.52C743.307 559.387 713.377 561.492 704.259 571.718C700.788 575.611 700.431 579.5 700.451 584.467C684.389 571.665 666.845 565.404 646.759 561.916C649.34 557.786 653.594 554.299 656.492 550.235C667.211 535.206 676.342 518.186 683.305 501.106C684.158 499.014 685.556 497.086 685.807 494.821L685.129 494.186C703.716 488.767 719.57 479.951 732.912 465.726C750.625 446.842 760.614 419.981 759.766 394.118C758.819 365.226 746.679 339.582 725.749 319.845C737.589 300.154 742.562 270.583 742.239 247.953Z"/>
	<path fill="#FDFDFD" d="M48.5621 521.292C49.8394 496.436 52.4146 472.097 57.5394 447.713Q58.3798 443.799 59.2937 439.901Q60.2076 436.003 61.1946 432.123Q62.1816 428.243 63.2414 424.383Q64.3012 420.522 65.4333 416.682Q66.5655 412.842 67.7696 409.024Q68.9738 405.206 70.2495 401.411Q71.5252 397.616 72.8721 393.846Q74.2189 390.076 75.6363 386.332Q77.0538 382.588 78.5414 378.871Q80.029 375.154 81.5862 371.466Q83.1435 367.778 84.7697 364.12Q86.396 360.461 88.0908 356.834Q89.7855 353.207 91.5482 349.613Q93.3109 346.018 95.1408 342.457Q96.9707 338.896 98.8672 335.371Q100.764 331.845 102.726 328.355Q104.689 324.866 106.716 321.414Q108.744 317.962 110.836 314.549Q112.929 311.136 115.085 307.762Q117.241 304.389 119.46 301.057Q121.679 297.725 123.96 294.435Q126.242 291.145 128.585 287.899Q130.927 284.652 133.331 281.45Q135.734 278.249 138.197 275.093Q140.661 271.937 143.183 268.827Q145.705 265.718 148.285 262.657Q150.865 259.596 153.502 256.584Q156.139 253.572 158.833 250.61Q161.526 247.647 164.275 244.737Q167.023 241.826 169.826 238.967Q172.629 236.108 175.485 233.303Q178.341 230.497 181.249 227.746C185.301 244.87 190.709 262.094 193.672 279.423C195.225 285.882 210.527 345.952 210.392 346.668C205.83 365.792 201.868 386.889 201.922 406.632L201.461 407.051L201.839 406.971L201.175 406.856L201.234 407.363C191.267 407.956 181.065 407.507 171.074 407.483Q143.557 407.362 116.041 407.583C113.252 417.304 109.51 426.723 106.707 436.445C99.6934 460.778 95.0109 487.124 93.7704 512.426C78.898 512.257 62.7003 517.039 48.5621 521.292Z"/>
	<path fill="#0A73C7" d="M144.953 346.455C154.057 327.367 168.183 309.088 181.741 292.97C185.617 288.363 189.815 284.048 193.672 279.423C195.225 285.882 210.527 345.952 210.392 346.668C188.623 346.008 166.734 346.459 144.953 346.455Z"/>
	<path fill="#FDFDFD" d="M833.497 218.18Q837.497 221.837 841.407 225.592Q845.316 229.347 849.131 233.197Q852.947 237.047 856.666 240.99Q860.386 244.933 864.008 248.966Q867.629 252.999 871.15 257.12Q874.671 261.241 878.089 265.447Q881.508 269.654 884.822 273.943Q888.136 278.233 891.343 282.602Q894.55 286.972 897.649 291.419Q900.748 295.866 903.736 300.389Q906.725 304.911 909.601 309.505Q912.477 314.1 915.239 318.764Q918.001 323.427 920.648 328.158Q923.294 332.888 925.823 337.682Q928.352 342.476 930.763 347.331Q933.173 352.186 935.464 357.099Q937.754 362.012 939.922 366.98Q942.091 371.947 944.137 376.967Q946.182 381.987 948.103 387.055Q950.025 392.123 951.821 397.238Q953.617 402.352 955.286 407.509Q956.956 412.665 958.498 417.862Q960.04 423.058 961.454 428.291Q962.868 433.524 964.152 438.79Q965.437 444.056 966.591 449.352Q967.746 454.648 968.77 459.971Q969.793 465.293 970.686 470.64Q971.578 475.986 972.339 481.353Q973.099 486.72 973.727 492.104Q974.355 497.488 974.851 502.885Q975.346 508.283 975.708 513.691Q976.071 519.099 976.3 524.515C976.684 532.795 976.642 541.132 976.472 549.418C963.457 543.224 949.165 534.723 934.349 539.983Q933.197 540.394 932.057 540.836C931.862 496.276 924.614 449.471 908.93 407.695C892.858 407.226 876.704 407.497 860.624 407.481C842.951 407.463 825.22 407.206 807.559 407.901C807.199 396.317 806.073 384.453 804.149 373.02C803.13 366.96 801.106 360.739 800.829 354.601C800.724 352.29 801.965 349.393 802.646 347.185C804.47 342.205 805.492 336.544 806.826 331.387Q811.89 312.114 816.411 292.706C818.297 284.71 819.786 276.318 822.4 268.533C825.598 251.626 830.138 235.052 833.497 218.18Z"/>
	<path fill="#052D61" d="M822.4 268.533C840.59 286.107 868.908 323.975 880.086 347.097C854.389 347.865 828.339 347.834 802.646 347.185C804.47 342.205 805.492 336.544 806.826 331.387Q811.89 312.114 816.411 292.706C818.297 284.71 819.786 276.318 822.4 268.533Z"/>
	<path fill="#FDFDFD" d="M142.644 740.377C155.293 761.607 168.149 782.351 183.359 801.88Q185.977 805.26 188.663 808.585Q191.35 811.911 194.105 815.18Q196.86 818.449 199.682 821.66Q202.504 824.872 205.392 828.024Q208.279 831.177 211.231 834.269Q214.184 837.361 217.199 840.392Q220.214 843.423 223.292 846.39Q226.369 849.358 229.507 852.261Q232.645 855.165 235.842 858.003Q239.039 860.841 242.295 863.612Q245.55 866.384 248.862 869.087Q252.173 871.791 255.54 874.425Q258.907 877.06 262.328 879.624Q265.749 882.188 269.221 884.682Q272.694 887.175 276.218 889.596Q279.741 892.017 283.314 894.365Q286.887 896.712 290.508 898.985Q294.128 901.259 297.795 903.457Q301.462 905.655 305.173 907.777Q308.885 909.899 312.639 911.943Q316.394 913.988 320.19 915.955Q323.985 917.922 327.821 919.81Q331.657 921.698 335.531 923.506Q339.405 925.314 343.315 927.042Q347.225 928.77 351.171 930.417Q355.116 932.064 359.094 933.629Q363.073 935.193 367.083 936.676Q371.093 938.158 375.132 939.557Q379.172 940.957 383.24 942.272Q387.307 943.588 391.401 944.819Q395.495 946.05 399.614 947.197Q403.733 948.343 407.874 949.404C440.556 957.706 475.234 962.729 509.003 962.566Q528.694 962.619 548.311 960.904Q552.874 960.532 557.427 960.059Q561.981 959.586 566.522 959.012Q571.064 958.438 575.592 957.765Q580.12 957.091 584.633 956.318Q589.145 955.544 593.638 954.671Q598.132 953.797 602.606 952.825Q607.079 951.853 611.53 950.782Q615.981 949.711 620.407 948.542Q624.833 947.373 629.233 946.107Q633.632 944.84 638.002 943.477Q642.372 942.113 646.711 940.654Q651.05 939.194 655.356 937.639Q659.662 936.084 663.932 934.434Q668.202 932.784 672.435 931.04Q676.668 929.296 680.861 927.459Q685.054 925.622 689.206 923.693Q693.357 921.764 697.465 919.743Q701.573 917.723 705.635 915.612Q709.698 913.501 713.712 911.301Q717.727 909.101 721.692 906.813Q725.657 904.525 729.571 902.15Q733.484 899.775 737.344 897.314Q741.204 894.852 745.009 892.307Q748.814 889.761 752.561 887.131Q756.309 884.502 759.997 881.791Q763.686 879.079 767.314 876.287Q770.941 873.495 774.507 870.623Q778.072 867.751 781.573 864.801Q785.073 861.851 788.508 858.825Q791.943 855.798 795.31 852.697Q798.677 849.595 801.975 846.42Q805.272 843.244 808.499 839.997C818.88 829.499 829.113 818.369 838.135 806.669C842.383 801.159 845.9 794.992 850.426 789.721C850.547 789.58 850.67 789.441 850.793 789.301C855.944 791.104 862.45 791.064 867.778 790.054C881.424 787.469 888.584 780.294 896.142 769.29C900.077 775.739 903.595 779.843 910.173 783.724C870.064 855.145 807.253 914.406 735.861 953.994Q730.909 956.7 725.893 959.285Q720.876 961.87 715.799 964.333Q710.722 966.796 705.586 969.135Q700.451 971.474 695.26 973.689Q690.069 975.903 684.827 977.991Q679.584 980.079 674.292 982.04Q669.001 984 663.663 985.832Q658.326 987.664 652.945 989.366Q647.565 991.069 642.145 992.64Q636.725 994.212 631.269 995.652Q625.812 997.091 620.323 998.399Q614.833 999.706 609.313 1000.88Q603.794 1002.05 598.247 1003.09Q592.701 1004.14 587.131 1005.04Q581.561 1005.95 575.97 1006.72Q570.38 1007.49 564.773 1008.12Q559.165 1008.76 553.544 1009.26Q547.923 1009.76 542.292 1010.12Q536.66 1010.48 531.022 1010.71Q525.383 1010.94 519.741 1011.03Q514.098 1011.12 508.455 1011.07Q502.812 1011.02 497.172 1010.84Q491.532 1010.66 485.898 1010.34Q480.263 1010.02 474.639 1009.56Q469.014 1009.11 463.402 1008.52Q457.79 1007.92 452.194 1007.2Q446.598 1006.47 441.021 1005.61Q435.444 1004.74 429.89 1003.75Q424.335 1002.75 418.807 1001.62Q413.278 1000.49 407.778 999.222Q402.279 997.958 396.811 996.56Q391.344 995.162 385.912 993.633C272.186 960.973 170.718 885.974 112.918 781.743C118.505 779.87 123.58 777.767 128.234 774.063C138.892 765.58 141.145 753.211 142.644 740.377Z"/>
	<path fill="#0A73C7" d="M138.084 708.008C153.36 739.222 171.407 765.583 206.026 777.427Q207.091 777.78 208.165 778.107Q209.239 778.435 210.32 778.735Q211.402 779.036 212.49 779.309Q213.579 779.583 214.673 779.83Q215.768 780.077 216.869 780.297Q217.97 780.517 219.075 780.71Q220.181 780.903 221.291 781.068Q222.401 781.234 223.515 781.372Q224.629 781.51 225.746 781.621Q226.863 781.731 227.982 781.814Q229.102 781.897 230.223 781.953Q231.344 782.009 232.466 782.036Q233.588 782.064 234.71 782.065Q235.833 782.065 236.955 782.038Q238.077 782.01 239.198 781.956Q240.319 781.901 241.438 781.818Q242.558 781.736 243.675 781.626Q244.792 781.516 245.905 781.378Q247.019 781.241 248.13 781.076Q249.24 780.911 250.346 780.719Q251.452 780.527 252.552 780.307Q253.653 780.088 254.748 779.842Q255.843 779.595 256.932 779.322Q258.02 779.049 259.102 778.749Q260.184 778.449 261.258 778.123Q262.331 777.796 263.397 777.443Q264.462 777.091 265.519 776.712Q266.576 776.333 267.622 775.928Q268.669 775.523 269.706 775.093Q270.742 774.662 271.768 774.207Q272.794 773.751 273.808 773.27Q274.822 772.789 275.824 772.283C282.585 768.893 288.575 764.625 294.434 759.873C297.838 767.748 302.875 775.823 311.212 779.175C314.349 780.437 317.641 781.215 320.984 781.685C328.782 782.782 336.99 782.712 344.858 783.078C353.539 783.483 362.749 784.484 371.411 783.758C374.118 783.531 376.674 783.021 379.165 781.9C383.695 779.862 386.838 776.581 390.083 772.962C396.031 780.881 401.744 788.243 412.274 789.885C427.5 792.261 439.553 780.15 451.042 772.02C454.722 774.238 458.21 775.994 462.402 777.03C474.273 779.962 494.018 777.868 506.596 776.756L508.09 777.199C508.752 778.783 508.682 780.354 508.715 782.039C509.175 805.972 508.573 830.055 508.536 854.007Q508.355 908.289 509.003 962.566C475.234 962.729 440.556 957.706 407.874 949.404Q403.733 948.343 399.614 947.197Q395.495 946.05 391.401 944.819Q387.307 943.588 383.24 942.272Q379.172 940.957 375.132 939.557Q371.093 938.158 367.083 936.676Q363.073 935.193 359.094 933.629Q355.116 932.064 351.171 930.417Q347.225 928.77 343.315 927.042Q339.405 925.314 335.531 923.506Q331.657 921.698 327.821 919.81Q323.985 917.922 320.19 915.955Q316.394 913.988 312.639 911.943Q308.885 909.899 305.173 907.777Q301.462 905.655 297.795 903.457Q294.128 901.259 290.508 898.985Q286.887 896.712 283.314 894.364Q279.741 892.017 276.218 889.596Q272.694 887.175 269.221 884.682Q265.749 882.188 262.328 879.624Q258.907 877.06 255.54 874.425Q252.173 871.791 248.862 869.087Q245.55 866.384 242.295 863.612Q239.039 860.841 235.842 858.003Q232.645 855.165 229.507 852.261Q226.369 849.358 223.292 846.39Q220.214 843.423 217.199 840.392Q214.184 837.361 211.231 834.269Q208.279 831.177 205.392 828.024Q202.504 824.872 199.682 821.66Q196.86 818.449 194.105 815.18Q191.35 811.911 188.663 808.585Q185.977 805.26 183.359 801.88C168.149 782.351 155.293 761.607 142.644 740.377C141.78 729.479 139.033 718.836 138.084 708.008Z"/>
	<path fill="#052D61" d="M506.596 776.756C513.001 775.519 520.425 776.336 527.018 775.92C539.022 775.163 551.691 773.298 563.72 773.932C571.67 774.351 579.317 777.496 587.332 778.244C625.727 781.823 668.077 774.678 698.27 749.058C699.858 759.046 701.613 768.169 710.402 774.48C714.903 777.711 720.469 779.272 725.944 779.74C738.158 780.785 759.767 777.799 772.583 776.74C787.093 775.542 802.843 775.256 817.117 772.803C817.996 772.652 818.866 772.481 819.729 772.255C829.797 779.127 839.075 785.549 850.793 789.301C850.67 789.441 850.547 789.58 850.426 789.721C845.9 794.992 842.383 801.159 838.135 806.669C829.113 818.369 818.88 829.499 808.499 839.997Q805.272 843.244 801.975 846.42Q798.677 849.595 795.31 852.697Q791.943 855.798 788.508 858.825Q785.073 861.851 781.573 864.801Q778.072 867.751 774.506 870.623Q770.941 873.495 767.314 876.287Q763.686 879.079 759.997 881.791Q756.309 884.502 752.561 887.131Q748.814 889.761 745.009 892.307Q741.204 894.852 737.344 897.314Q733.484 899.775 729.57 902.15Q725.657 904.525 721.692 906.813Q717.727 909.102 713.712 911.302Q709.698 913.501 705.635 915.612Q701.573 917.723 697.465 919.743Q693.357 921.764 689.206 923.693Q685.054 925.622 680.861 927.459Q676.668 929.296 672.435 931.04Q668.202 932.784 663.932 934.434Q659.662 936.084 655.356 937.639Q651.05 939.194 646.711 940.654Q642.372 942.114 638.002 943.477Q633.632 944.84 629.233 946.107Q624.833 947.373 620.407 948.542Q615.981 949.711 611.53 950.782Q607.079 951.853 602.606 952.825Q598.132 953.797 593.638 954.671Q589.145 955.544 584.633 956.318Q580.12 957.091 575.592 957.765Q571.064 958.439 566.522 959.012Q561.981 959.586 557.427 960.059Q552.874 960.532 548.311 960.904Q528.694 962.619 509.003 962.566Q508.355 908.287 508.536 854.007C508.573 830.055 509.175 805.972 508.715 782.039C508.682 780.354 508.752 778.783 508.09 777.199L506.596 776.756Z"/>
	<path fill="#FDFDFD" d="M127.298 691.439C128.852 700.18 130.195 708.976 131.661 717.734C132.751 724.251 134.264 731.003 134.451 737.614C134.53 740.396 134.238 743.129 133.405 745.793C131.399 752.204 127.078 757.106 121.177 760.216C110.411 765.889 80.443 770.249 68.7586 766.367C61.3486 763.905 56.1828 759.023 52.8858 752.051C48.3916 742.547 45.4651 718.603 43.3032 706.993L30.7219 642.104L21.3558 595.54C19.756 587.702 17.4908 579.736 16.527 571.806C15.9046 566.685 16.0181 561.451 17.914 556.582C21.7483 546.735 31.5254 541.004 40.7614 537.06C70.7611 524.246 110.816 519.233 141.386 531.537C163.765 540.545 173.793 552.826 183.042 574.524Q188.024 570.912 193.136 567.486C211.405 555.365 232.508 551.346 254 555.652C261.687 557.876 270.407 560.664 277.171 565.032C280.306 567.056 283.7 570.339 287.039 571.798C291.159 573.121 295.15 574.114 299.413 574.852C302.237 575.34 306.125 575.33 308.692 576.366C309.449 570.362 310.194 564.567 314.894 560.214C323.946 551.831 355.497 551.932 367.763 552.539C374.934 552.894 383.725 554.9 388.567 560.62C393.505 566.454 393.185 573.435 392.814 580.571C398.962 574.624 404.933 568.493 411.086 562.558C415.841 557.972 421.322 554.07 428.251 554.326C438.076 554.69 445.138 563.448 451.383 570.058C459.774 562.591 479.58 561.734 490.569 560.532C506.846 558.75 566.93 555.345 578.305 564.482C599.435 558.099 625.064 558.799 646.759 561.916C666.845 565.404 684.389 571.665 700.451 584.467C700.431 579.5 700.788 575.611 704.259 571.718C713.377 561.492 743.307 559.387 756.396 558.52C776.351 557.896 817.483 556.434 834.602 564.681Q839.807 560.55 845.328 556.85C854.644 550.626 870.511 542.058 882.168 544.673C893.941 547.315 904.518 567.84 910.803 577.727C911.485 576.5 912.276 575.335 913.043 574.161C919.819 563.789 926.409 553.357 939.5 550.866Q941.013 550.584 942.547 550.46Q944.082 550.335 945.62 550.368Q947.159 550.401 948.687 550.592Q950.214 550.783 951.714 551.129C959.418 552.988 980.354 563.696 987.348 568.467C993.961 572.977 999.249 579.682 1000.57 587.742C1001.26 591.957 1000.78 596.63 998.92 600.503C995.833 606.936 990.264 612.721 985.815 618.278C975.654 630.967 964.71 643.486 955.327 656.759C957.667 660.179 959.741 663.79 961.746 667.415Q970.563 683.544 979.142 699.802C983.182 707.454 989.233 716.525 990.995 725.027C991.584 727.87 991.122 731.037 990.265 733.783C987.428 742.873 979.278 747.437 971.342 751.504C961.38 756.608 942.794 766.181 932.103 767.813Q930.728 768.036 929.336 768.088Q927.944 768.14 926.556 768.022Q925.167 767.903 923.804 767.615Q922.441 767.327 921.124 766.874C909.146 762.724 904.647 748.29 899.679 737.749C894.247 747.047 888.686 757.817 881.679 765.984C877.972 770.304 873.204 772.939 867.474 773.276C856.061 773.947 834.528 760.016 825.868 752.473C822.865 754.371 820.34 755.782 816.741 756.295C810.092 757.241 803.122 757.389 796.411 757.894Q776.286 759.464 756.144 760.794C747.99 761.32 738.397 763.133 730.376 762.212Q728.924 762.035 727.51 761.661Q726.095 761.289 724.745 760.727Q723.394 760.166 722.132 759.426Q720.87 758.686 719.72 757.782C717.323 755.866 715.668 753.589 714.582 750.721C711.675 743.049 711.289 723.048 710.412 713.876C705.102 722.779 696.787 730.388 688.495 736.478C660.301 757.185 622.179 764.715 587.836 759.406C582.174 758.53 577.037 757.705 573.489 752.818L573.036 752.188C570.045 752.748 567.329 754.698 564.315 755.211C561.412 755.705 558.228 755.523 555.278 755.658L535.132 756.659L496.905 758.678C490.37 759.013 483.543 759.856 477.014 759.483C473.025 759.256 468.46 758.765 465.251 756.197C461.355 753.08 461.273 748.372 460.846 743.807Q456.325 747.248 451.734 750.596C444.812 755.639 429.504 767.958 422.013 770.492C419.953 771.189 417.649 771.249 415.52 770.854C404.555 768.819 393.17 747.773 387.145 738.857C386.065 746.674 387.485 754.458 381.34 760.65C376.174 765.857 369.978 765.742 363.18 765.631C353.832 765.478 328.318 765.258 320.597 762.852C317.255 761.811 314.137 759.691 311.766 757.136C304.101 748.876 306.362 734.847 306.576 724.459C291.093 743.704 276.564 758.299 251.242 763.224C230.696 767.221 210.09 762.594 192.915 750.786C169.143 734.442 154.163 710.071 149.039 681.872C142.099 685.79 134.931 689.112 127.298 691.439Z"/>
	<path fill="#020202" d="M287.039 571.798C291.159 573.121 295.15 574.114 299.413 574.852C302.237 575.34 306.125 575.33 308.692 576.366C308.267 583.099 308.472 589.952 308.45 596.702C302.007 587.426 295.199 579.586 287.039 571.798Z"/>
	<path fill="#020202" d="M832.527 619.287C840.192 626.35 848.791 642.458 854.731 651.85C849.041 658.953 843.843 666.524 838.492 673.887C836.325 676.857 834.716 680.86 831.503 682.753C829.643 682.844 829.008 681.946 827.531 680.872C829.64 670.961 830.143 647.346 828.318 637.56C827.882 635.22 827.055 633.022 826.223 630.8C828.569 627.001 830.946 623.492 832.527 619.287Z"/>
	<path fill="#020202" d="M342.339 563.713C342.572 563.688 342.806 563.655 343.04 563.637C350.519 563.04 373.033 561.591 378.588 566.967C380.224 568.55 381.011 570.649 381.308 572.874C381.818 576.704 381.045 581 380.795 584.864C380.234 593.569 379.486 602.329 379.519 611.054C393.818 598.003 406.097 582.817 420.173 569.569C422.213 567.649 424.489 565.667 427.48 565.882C429.205 566.006 430.817 566.756 432.202 567.757C439.743 573.205 452.079 587.564 459.097 594.955C458.589 590.087 456.303 581.342 459.825 577.278C463.384 573.171 501.816 570.157 509.882 569.75C520.205 569.228 567.684 568.014 573.891 574.55C575.383 576.121 575.466 578.374 575.505 580.434C575.625 586.882 574.53 593.648 574.089 600.102C573.569 607.713 573.834 616.043 572.342 623.495C571.894 625.73 571.086 628.215 569.378 629.82C568.197 630.929 566.715 631.207 565.162 631.337C561.111 631.676 556.778 630.92 552.733 630.525C544.15 629.688 535.521 628.611 526.899 628.337L526.73 634.436C533.011 634.495 557.796 634.813 561.809 637.885C563.056 640.1 563.542 642.314 563.702 644.848C564.102 651.226 564.056 674.977 559.925 679.548C552.884 682.882 534.228 682.347 525.812 682.497C525.901 686.221 526.127 689.882 526.495 693.589Q539.104 692.174 551.668 690.404C557.167 689.605 562.914 688.396 568.456 688.133C569.948 688.063 571.246 688.327 572.659 688.778C573.435 689.564 574.373 690.428 574.875 691.421C575.801 693.254 575.776 696.181 575.695 698.182C575.482 703.446 571.553 734.698 570.025 739.187C569.463 740.839 568.834 742.368 567.178 743.093C565.139 743.984 562.501 744.432 560.298 744.685C546.414 746.284 529.428 746.507 515.235 747.267C503.745 747.882 490.537 749.372 479.237 749.291C476.999 749.275 474.788 749.128 472.651 748.429C468.385 743.385 468.896 732.094 468.383 725.72Q453.812 735.867 439.397 746.233C433.941 750.156 428.338 754.858 422.446 758.061C420.596 759.066 418.973 759.716 416.861 759.735C414.894 758.949 413.564 757.732 412.148 756.168C407.997 751.585 404.652 745.757 401.1 740.682Q389.444 724.17 378.067 707.466C378.086 714.842 377.387 747.386 374.892 752.039C374.023 753.658 372.292 754.364 370.581 754.747C366.372 755.688 331.766 753.892 326.125 753.062C324.258 752.788 321.903 752.332 320.346 751.181C318.551 749.855 317.59 747.538 317.269 745.378C316.521 740.342 317.014 734.733 317.066 729.649L317.302 700.739Q317.217 658.239 318.31 615.753C318.625 602.33 318.528 588.655 319.531 575.276C319.7 573.03 319.825 570.084 321.314 568.314C324.924 564.024 337.01 564.116 342.339 563.713Z"/>
	<path fill="#FDFDFD" d="M460.385 617.906C462.489 627.43 462.445 641.681 463.119 651.751C464.523 672.724 466.301 693.686 467.134 714.69C461.445 707.609 456.165 700.266 450.925 692.851C441.724 679.547 431.804 666.619 422.384 653.453C429.712 646.095 437.398 639.003 444.996 631.921C450.044 627.215 455.029 622.253 460.385 617.906Z"/>
	<path fill="#020202" d="M450.301 641.854L450.7 642.217C452.512 646.811 453.404 670.433 453.535 676.693C451.428 674.147 449.449 671.479 447.429 668.863Q442.164 661.713 437.104 654.416Q443.797 648.235 450.301 641.854Z"/>
	<path fill="#34A1DB" d="M514.593 578.716C531.134 577.224 549.441 578.497 565.884 580.571C564.165 594.303 563.505 608.367 562.971 622.187C547.947 621.297 532.99 618.752 517.947 617.808C516.911 626.207 517.186 635.105 517.018 643.573C529.536 643.835 542.079 644.467 554.585 645.068Q553.72 658.509 553.447 671.976C541.159 672.126 528.835 672.865 516.547 673.257C516.466 683.517 516.975 693.851 517.387 704.104C531.227 703.197 545.231 700.788 558.885 698.459C561.342 698.089 563.789 697.609 566.236 697.172C565.011 709.958 562.465 722.596 561.886 735.46C551.09 735.601 540.252 736.569 529.476 737.234L478.726 740.217C477.843 719.784 475.816 699.246 474.223 678.851L467.355 583.646C483.002 581.605 498.833 579.539 514.593 578.716Z"/>
	<path fill="#F7C416" d="M351.55 572.723Q362.001 572.255 372.429 573.086C370.307 593.517 369.737 614.508 369.361 635.041C388.008 614.571 407.852 594.908 427.353 575.245C438.116 585.255 447.813 596.796 458.036 607.388Q443.627 620.622 429.646 634.308C423.43 640.305 417.159 646.947 410.204 652.049C427.011 674.412 442.6 697.738 459.476 720.063C456.968 722.456 454.092 724.469 451.326 726.553C440.42 734.564 429.542 742.758 418.237 750.197C402.703 725.171 384.534 701.93 369.506 676.555Q368.766 711.109 367.409 745.644C353.781 745.448 339.943 745.178 326.365 743.99L328.566 574.129C336.196 573.33 343.889 573.086 351.55 572.723Z"/>
	<path fill="#020202" d="M95.9663 534.709C96.2127 534.688 96.4586 534.66 96.7054 534.644C116.911 533.366 139.309 537.891 155.019 551.28C168.88 563.094 175.332 579.888 176.67 597.761C190.424 581.533 206.828 567.624 228.64 564.802Q230.275 564.604 231.918 564.487Q233.56 564.37 235.207 564.334Q236.853 564.298 238.499 564.343Q240.145 564.388 241.787 564.514Q243.429 564.64 245.063 564.847Q246.697 565.054 248.319 565.342Q249.94 565.629 251.546 565.996Q253.151 566.363 254.736 566.808Q256.322 567.254 257.883 567.777Q259.445 568.3 260.979 568.899Q262.513 569.499 264.015 570.173Q265.518 570.847 266.985 571.595Q268.452 572.343 269.881 573.161Q271.31 573.98 272.697 574.869Q274.083 575.757 275.424 576.713Q276.766 577.668 278.058 578.689C298.663 594.876 311.052 618.566 314.122 644.478C317.436 672.441 310.484 702.075 292.906 724.34C280.803 739.669 263.654 751.138 243.941 753.345C224.911 755.475 206.138 748.482 191.433 736.652Q189.826 735.314 188.3 733.884C166.106 712.863 158.823 688.335 158.042 658.589C146.553 672.359 131.667 679.279 114.853 684.214C117.204 701.005 120.356 717.666 122.823 734.429C123.463 738.776 123.914 743.05 120.987 746.736C115.04 754.225 96.9893 755.193 87.9718 756.334C80.9779 757.219 72.5736 757.912 66.75 753.168C63.4212 750.456 62.5521 746.298 61.4955 742.303C58.3149 730.278 56.6129 717.528 54.2156 705.3L39.776 631.855L31.6664 590.998C30.1916 583.639 28.0558 575.853 27.5018 568.391C27.1336 563.431 28.4306 559.011 31.6996 555.225C43.5554 541.493 78.8482 536.005 95.9663 534.709Z"/>
	<path fill="#F7C416" d="M100.685 544.219C115.906 543.702 132.138 546.372 144.774 555.326C157.624 564.432 164.809 578.136 167.352 593.457C170.593 612.978 166.258 632.379 154.598 648.439C142.463 665.154 124.238 673.555 104.268 676.685L110.681 716.613C111.97 724.491 113.999 732.953 114.002 740.938C113.326 742.264 112.586 742.461 111.316 743.194Q104.19 744.424 97.0213 745.37C91.4216 746.114 77.3799 749.377 72.6794 745.776C69.4802 737.419 68.2797 728.306 66.6032 719.545L58.9885 679.643L44.5721 605.687C41.8967 592.037 38.2278 578.011 36.7567 564.214C37.028 563.887 37.2985 563.56 37.5842 563.247C50.1346 549.476 82.7958 544.922 100.685 544.219Z"/>
	<path fill="#020202" d="M96.5379 589.176C99.3065 588.756 102.542 588.662 105.326 588.95C111.338 589.572 116.668 592.369 120.466 597.091C125.348 603.16 127.38 611.842 126.463 619.545C125.43 628.224 121.345 633.672 114.654 638.87C109.617 642.006 104.851 643.524 99.0373 644.485C95.1214 626.73 92.8735 608.336 89.5257 590.427C91.8405 589.914 94.2 589.569 96.5379 589.176Z"/>
	<path fill="#FDFDFD" d="M100.195 597.771C104.006 597.971 107.375 598.35 110.61 600.601C114.32 603.183 116.327 607.264 117.055 611.644C118.051 617.644 116.741 622.924 113.31 627.888C111.64 629.526 109.155 631.858 106.678 631.847C104.647 629.049 101.731 603.956 100.195 597.771Z"/>
	<path fill="#E35051" d="M230.449 574.174C245.42 572.203 260.794 576.906 272.728 585.904C290.84 599.561 301.821 622.114 304.849 644.294C308.336 669.837 301.704 697.684 285.977 718.241C275.1 732.458 260.401 741.523 242.617 743.965C226.164 744.786 212.798 740.676 199.592 730.724C182.447 717.803 171.227 696.654 168.297 675.544C166.816 664.868 166.798 652.953 169.744 642.511C171.173 637.447 173.151 632.562 174.683 627.535C178.332 615.556 176.96 613.252 185.251 602.378C196.408 587.748 211.98 576.706 230.449 574.174Z"/>
	<path fill="#020202" d="M236.463 621.182C245.328 620.822 253.428 622.944 260.354 628.66C268.616 635.479 273.485 645.696 274.394 656.297C275.358 667.544 272.254 679.54 264.903 688.242C258.695 695.592 250.387 699.964 240.83 700.805C232.71 701.187 225.105 699.116 218.63 694.146C210.148 687.636 204.854 677.344 203.574 666.809C202.198 655.494 204.861 643.735 212.041 634.751C218.231 627.007 226.621 622.242 236.463 621.182Z"/>
	<path fill="#FDFDFD" d="M237.65 630.672C243.112 630.472 248.636 631.899 253.146 635.024C259.451 639.394 263.773 646.848 265.094 654.353C266.615 662.989 264.645 672.923 259.542 680.101C254.824 686.735 248.46 690.057 240.62 691.445C234.549 691.714 229.094 690.129 224.222 686.432C217.737 681.51 213.992 674.017 212.866 666.061C211.629 657.314 213.43 647.865 218.925 640.806C223.772 634.579 229.917 631.576 237.65 630.672Z"/>
	<path fill="#020202" d="M236.217 641.576C239.101 641.39 241.725 641.271 244.453 642.381C248.811 644.154 251.941 647.742 253.629 652.083C255.865 657.83 255.494 664.641 252.873 670.198C250.516 675.195 247.004 678.118 241.862 679.925C238.864 680.215 236.29 680.305 233.434 679.17C229.328 677.538 226.443 674.232 224.804 670.181C222.46 664.389 222.432 657.371 224.978 651.643C227.314 646.388 230.951 643.495 236.217 641.576Z"/>
	<path fill="#020202" d="M874.475 556.077C875.91 556.002 877.491 555.921 878.899 556.241C881.903 556.925 884.498 559.515 886.432 561.765C889.84 565.731 892.611 570.718 895.373 575.157C900.102 582.758 904.727 590.426 909.677 597.887C915.522 589.158 921.74 580.615 927.954 572.145C931.709 567.026 936.004 562.298 942.661 561.441C944.832 561.162 946.977 561.296 949.075 561.93C955.474 563.864 976.94 574.613 981.997 578.417C985.614 581.139 989.522 585.279 990.056 589.986C990.336 592.455 989.537 594.303 988.342 596.411C983.888 604.259 976.762 611.661 971.132 618.764C961.497 630.922 952.127 643.266 942.368 655.33C950.901 672.719 961.173 689.498 970.43 706.536C973.715 712.581 977.984 719.065 980.214 725.581C980.667 726.904 980.706 728.183 980.295 729.524C978.897 734.087 974.492 737.205 970.527 739.45C962.858 743.79 932.262 759.535 924.68 757C922.558 756.29 920.72 753.733 919.532 751.964C916.906 748.053 915.048 743.359 912.991 739.12Q907.312 727.174 901.181 715.453C894.481 724.628 888.447 734.606 882.338 744.198C879.622 748.462 877.078 753.249 873.883 757.155C872.106 759.327 869.794 761.725 866.84 761.969C857.548 762.736 831.84 744.277 824.441 737.761Q824.114 738.427 823.768 739.084C822.272 741.902 820.299 744.157 817.107 744.991C811.885 746.355 805.851 746.386 800.474 746.795L773.127 748.828L746.771 750.752C742.054 751.088 737.17 751.708 732.446 751.546C730.587 751.482 729.349 751.097 727.786 750.109C725.494 748.66 724.929 746.752 724.392 744.221C723.274 738.947 723.317 733.08 722.907 727.695L720.473 696.208C719.849 688.365 719.414 680.204 717.757 672.501L717.6 671.789C713.926 693.475 701.733 712.339 684.579 725.935C658.396 746.686 623.087 752.792 590.539 748.986C588.331 748.712 585.888 748.546 583.786 747.801C581.987 747.164 579.982 745.857 579.262 743.997C578.473 741.959 578.559 739.183 578.497 737.016C578.145 724.78 578.475 712.445 578.487 700.2L578.45 642.627C578.545 623.184 577.699 603.368 578.597 583.979C578.677 582.26 578.929 580.838 579.631 579.261C580.881 576.456 582.515 575.085 585.397 574.048C591.426 571.879 598.964 571.814 605.359 571.575C628.654 570.708 654.532 571.996 675.85 582.273Q677.499 583.064 679.107 583.934Q680.716 584.804 682.28 585.752Q683.844 586.699 685.36 587.721Q686.877 588.743 688.342 589.838Q689.806 590.933 691.216 592.098Q692.626 593.262 693.978 594.494Q695.33 595.726 696.62 597.022Q697.91 598.318 699.136 599.675Q700.361 601.032 701.52 602.447Q702.678 603.862 703.766 605.332Q704.854 606.802 705.87 608.323Q706.885 609.843 707.825 611.412Q708.766 612.98 709.629 614.593Q710.492 616.205 711.275 617.857Q712.059 619.509 712.761 621.198Q713.464 622.886 714.083 624.607Q713.356 611.665 712.43 598.736C712.122 594.264 711.43 589.547 711.654 585.078C711.739 583.394 711.983 581.238 713.006 579.834C716.574 574.93 730.105 573.37 735.933 572.333C759.94 568.061 784.529 568.607 808.752 570.247C813.22 570.549 823.082 570.306 826.394 573.392C831.553 578.199 829.71 604.376 829.608 612.213C829.544 617.059 829.122 623.794 825.216 627.224C820.2 631.629 789.716 629.014 781.933 628.747L782.013 635.645C789.29 635.592 809.28 632.102 814.335 636.607C816.333 638.387 817.194 642.285 817.435 644.806C818.132 652.102 818.664 674.291 814.081 679.379C810.156 683.737 785.543 683.366 778.865 683.53L778.954 693.044C792.207 691.881 805.504 690.248 818.786 689.578C820.089 690.246 821.479 690.937 822.508 692.007C826.678 696.347 825.59 705.481 825.592 711.056C831.145 702.517 837.465 694.328 843.469 686.091Q855.894 668.925 868.495 651.889L845.784 616.074C841.196 608.761 833.978 599.741 831.86 591.336C830.994 587.901 831.767 585.07 833.579 582.051C839.704 571.844 863.142 559.085 874.475 556.077Z"/>
	<path fill="#E35051" d="M768.208 578.281C785.325 577.046 803.447 578.71 820.509 580.204Q820.571 600.328 819.899 620.44C813.937 620.515 807.924 619.997 801.961 619.775Q787.193 619.281 772.42 619.016C772.303 627.982 772.83 637.012 772.995 645.984C784.7 645.316 796.386 644.268 808.083 643.478L808.229 672.408C795.178 673.698 781.996 673.835 768.91 674.806C769.262 684.424 769.423 694.047 769.849 703.663C784.227 702.847 798.75 700.759 813.08 699.206C814.334 699.073 814.719 698.879 815.909 699.388C816.506 703.76 816.143 708.447 816.133 712.864L816.112 736.301C805.468 737.266 794.776 737.649 784.116 738.423Q759.028 740.314 733.984 742.725C731.929 726.713 731.135 710.265 729.718 694.161L720.5 585.146C735.509 580.666 752.594 578.891 768.208 578.281Z"/>
	<path fill="#F7C416" d="M874.949 564.946C875.518 564.883 876.08 565.046 876.641 565.144C884.305 571.973 902.306 604.983 908.525 615.673C913.934 608.359 937.216 573.262 942.339 571.095C944.481 570.188 947.878 571.791 949.865 572.683C954.649 574.829 979.289 586.354 980.74 590.186C980.621 591.677 979.992 592.505 979.143 593.675C975.672 598.462 971.51 602.852 967.858 607.523Q949.339 631.062 931.073 654.796L959.213 705.963C963.204 713.275 967.746 720.508 971.198 728.08C960.272 735.315 940.637 744.17 927.98 747.952C927.289 746.773 926.698 745.503 926.072 744.286C918.292 727.885 909.613 711.813 902.419 695.162Q884.386 724.234 865.583 752.813C855.636 748.769 833.642 734.357 826.38 726.488C830.849 717.677 838.259 709.302 844.103 701.3C856.101 684.869 867.992 668.432 880.503 652.383Q867.542 632.866 855.074 613.032C850.049 605.15 844.04 597.073 840.398 588.467C847.543 578.496 863.931 569.799 874.949 564.946Z"/>
	<path fill="#34A1DB" d="M612.407 580.723C625.472 580.221 639.426 581.255 652.216 583.946C671.229 587.947 687.432 596.747 698.149 613.316C709.329 630.599 712.726 651.406 708.382 671.489C703.294 695.013 689.849 712.21 669.862 725.02C643.914 740.387 617.701 743.435 588.314 739.853C587.389 722.147 588.327 703.071 588.366 685.204L588.48 582.565C596.236 581.152 604.539 581.085 612.407 580.723Z"/>
	<path fill="#020202" d="M635.826 623.178C644.6 624.896 653.188 628.768 658.808 635.947C665.11 643.996 666.831 654.932 665.554 664.87C664.04 676.648 658.589 686.512 649.248 693.801C642.417 698.655 635.941 700.667 627.693 701.817C627.724 685.037 630.799 667.053 632.65 650.336C633.616 641.615 633.658 631.636 635.826 623.178Z"/>
	<path fill="#FDFDFD" d="M644.057 635.572C646.284 636.539 648.094 637.749 649.8 639.49C654.974 644.768 656.834 651.991 656.727 659.199C656.589 668.588 653.44 678.007 646.586 684.597C643.837 686.864 640.93 688.463 637.705 689.94C639.361 671.856 641.098 653.491 644.057 635.572Z"/>
	<path fill="#E35051" d="M254 555.652C248.039 550.187 243.019 541.368 238.91 534.369C205.751 477.896 201.812 408.984 218.232 346.599C238.527 269.497 288.916 208.073 357.395 168.314Q360.544 166.522 363.735 164.807Q366.927 163.092 370.158 161.454Q373.39 159.816 376.66 158.257Q379.93 156.697 383.237 155.217Q386.544 153.736 389.885 152.336Q393.227 150.935 396.601 149.616Q399.975 148.296 403.38 147.058Q406.785 145.82 410.218 144.664Q413.652 143.509 417.113 142.436Q420.573 141.363 424.059 140.374Q427.544 139.385 431.052 138.48Q434.56 137.575 438.089 136.755Q441.618 135.934 445.166 135.199Q448.714 134.464 452.278 133.815Q455.842 133.165 459.421 132.602Q463 132.038 466.592 131.561Q470.183 131.084 473.785 130.693Q477.387 130.303 480.997 129.999Q484.607 129.695 488.224 129.478Q491.841 129.261 495.461 129.132Q499.082 129.002 502.705 128.959Q506.327 128.917 509.95 128.961Q513.573 129.006 517.193 129.138Q520.814 129.27 524.431 129.489Q528.047 129.708 531.657 130.014Q535.267 130.32 538.869 130.712Q542.47 131.105 546.062 131.584Q549.653 132.064 553.231 132.629Q556.81 133.195 560.374 133.846Q563.938 134.498 567.485 135.235Q571.032 135.972 574.561 136.795Q578.089 137.617 581.597 138.524Q586.592 139.868 591.538 141.384Q596.484 142.9 601.374 144.587Q606.264 146.274 611.092 148.13Q615.921 149.985 620.682 152.007Q625.444 154.029 630.132 156.215Q634.82 158.4 639.43 160.747Q644.04 163.095 648.565 165.6Q653.091 168.106 657.527 170.767Q661.963 173.428 666.303 176.241Q670.644 179.054 674.885 182.017Q679.126 184.979 683.261 188.086Q687.397 191.194 691.422 194.443Q695.447 197.692 699.357 201.079Q703.267 204.465 707.057 207.986Q710.847 211.506 714.513 215.156Q718.179 218.805 721.716 222.58C728.812 230.217 737.02 238.917 742.239 247.953C742.562 270.583 737.589 300.154 725.749 319.845C746.679 339.582 758.819 365.226 759.766 394.118C760.614 419.981 750.625 446.842 732.912 465.726C719.57 479.951 703.716 488.767 685.129 494.186L685.807 494.821C685.556 497.086 684.158 499.014 683.305 501.106C676.342 518.186 667.211 535.206 656.492 550.235C653.594 554.299 649.34 557.786 646.759 561.916C625.064 558.799 599.435 558.099 578.305 564.482C566.93 555.345 506.846 558.75 490.569 560.532C479.58 561.734 459.774 562.591 451.383 570.058C445.138 563.448 438.076 554.69 428.251 554.326C421.322 554.07 415.841 557.972 411.086 562.558C404.933 568.493 398.962 574.624 392.814 580.571C393.185 573.435 393.505 566.454 388.567 560.62C383.725 554.9 374.934 552.894 367.763 552.539C355.497 551.932 323.946 551.831 314.894 560.214C310.194 564.567 309.449 570.362 308.692 576.366C306.125 575.33 302.237 575.34 299.413 574.852C295.15 574.114 291.159 573.121 287.039 571.798C283.7 570.339 280.306 567.056 277.171 565.032C270.407 560.664 261.687 557.876 254 555.652Z"/>
	<path fill="#020202" d="M498.192 404.594C499.979 404.446 501.905 404.554 503.671 404.853C505.674 405.192 507.486 405.656 508.707 407.349L508.472 408.409C507.082 409.875 505.607 410.438 503.763 411.207C501.492 411.364 499.147 411.28 496.948 410.645C494.912 410.058 493.106 409.396 492.019 407.524L492.481 406.494C494.266 405.26 496.113 404.996 498.192 404.594Z"/>
	<path fill="#020202" d="M546.564 428.57C546.651 428.678 546.75 428.777 546.825 428.893C550.034 433.902 550.624 460.194 550.415 466.498Q550.083 475.816 548.572 485.017C545.163 505.446 534.809 528.054 517.406 540.247C512.299 543.825 506.282 546.471 499.925 545.193C487.938 542.783 478.385 529.348 472.307 519.762C456.702 493.19 452.437 458.801 457.582 428.713C465.863 433.535 474.205 437.196 483.566 439.4C505.796 444.634 527.201 440.561 546.564 428.57Z"/>
	<path fill="#B82B2D" d="M542.974 435.928L543.597 436.088C547.508 442.307 545.143 473.041 543.982 480.836Q541.013 479.376 537.943 478.143Q534.874 476.91 531.72 475.911Q528.566 474.912 525.346 474.153Q522.126 473.394 518.858 472.879C502.821 470.272 487.471 472.107 473.601 480.93C470.644 482.811 468.05 485.362 465.192 487.429L464.35 487.118C460.717 470.316 460.039 453.749 460.885 436.609C465.719 438.683 470.56 440.692 475.583 442.274C498.717 449.559 521.52 447.119 542.974 435.928Z"/>
	<path fill="#E35051" d="M502.972 476.194C516.551 475.463 531.615 479.438 543.337 486.215C541.812 493.399 539.771 500.423 536.856 507.174C530.722 521.381 520.949 534.897 506.147 540.73C502.791 541.385 499.28 540.316 496.3 538.798C480.506 530.754 471.113 508.599 466.113 492.686C477.269 483.09 488.149 477.378 502.972 476.194Z"/>
	<path fill="#020202" d="M685.129 494.186C679.303 495.474 673.501 496.507 667.552 497.063C640.848 499.561 613.939 489.848 593.562 472.722C572.032 454.627 558.761 429.7 556.44 401.611C554.325 376.028 563.455 349.289 580.009 329.811Q580.822 328.839 581.659 327.889Q582.495 326.938 583.356 326.008Q584.216 325.079 585.1 324.171Q585.983 323.263 586.889 322.378Q587.795 321.492 588.723 320.63Q589.651 319.768 590.6 318.929Q591.549 318.09 592.519 317.276Q593.489 316.461 594.479 315.671Q595.469 314.881 596.478 314.115Q597.488 313.35 598.516 312.611Q599.544 311.871 600.591 311.158Q601.638 310.444 602.702 309.757Q603.766 309.07 604.847 308.41Q605.928 307.75 607.025 307.117Q608.122 306.484 609.235 305.879Q610.348 305.274 611.475 304.696Q612.603 304.119 613.745 303.571Q614.886 303.022 616.041 302.502Q617.197 301.982 618.364 301.492Q619.532 301.001 620.712 300.54Q621.891 300.078 623.082 299.647Q624.273 299.215 625.474 298.813Q626.676 298.412 627.887 298.04Q629.098 297.669 630.318 297.328Q631.538 296.987 632.766 296.677Q633.994 296.367 635.229 296.087Q636.465 295.808 637.707 295.56Q638.949 295.311 640.197 295.094Q641.445 294.877 642.698 294.692Q643.951 294.506 645.208 294.352Q646.465 294.197 647.726 294.075Q648.987 293.952 650.25 293.861C678.485 291.574 704.437 301.665 725.749 319.845C746.679 339.582 758.819 365.226 759.766 394.118C760.614 419.981 750.625 446.842 732.912 465.726C719.57 479.951 703.716 488.767 685.129 494.186Z"/>
	<path fill="#FDFDFD" d="M654.755 296.212C679.397 294.649 704.699 304.968 723.115 320.924Q724.041 321.731 724.946 322.56Q725.851 323.389 726.736 324.241Q727.62 325.092 728.483 325.965Q729.346 326.839 730.187 327.733Q731.029 328.627 731.847 329.542Q732.666 330.457 733.462 331.392Q734.258 332.327 735.03 333.281Q735.802 334.235 736.551 335.209Q737.299 336.182 738.023 337.173Q738.747 338.165 739.447 339.174Q740.146 340.183 740.82 341.209Q741.494 342.235 742.142 343.278Q742.791 344.321 743.413 345.379Q744.035 346.437 744.631 347.511Q745.227 348.584 745.796 349.672Q746.365 350.76 746.907 351.861Q747.449 352.963 747.964 354.078Q748.478 355.193 748.965 356.32Q749.451 357.447 749.91 358.586Q750.368 359.725 750.799 360.875Q751.229 362.024 751.63 363.185Q752.032 364.345 752.404 365.515Q752.777 366.685 753.12 367.863Q753.464 369.042 753.778 370.229Q754.092 371.416 754.377 372.61Q754.662 373.804 754.917 375.005Q755.171 376.206 755.397 377.413Q755.622 378.62 755.817 379.832Q756.012 381.044 756.177 382.261Q756.342 383.477 756.476 384.698Q756.611 385.918 756.715 387.141Q756.82 388.365 756.894 389.59C758.712 416.399 750.488 442.313 732.599 462.499C714.001 483.485 689.748 493.422 662.106 495.003Q659.769 495.03 657.434 494.949Q655.099 494.869 652.769 494.682Q650.44 494.495 648.122 494.201Q645.804 493.908 643.501 493.508Q641.199 493.108 638.917 492.604Q636.636 492.099 634.38 491.491Q632.124 490.882 629.898 490.171Q627.672 489.46 625.481 488.647Q623.29 487.835 621.138 486.923Q618.987 486.011 616.88 485.001Q614.772 483.991 612.713 482.886Q610.654 481.781 608.648 480.583Q606.642 479.385 604.693 478.096Q602.744 476.807 600.855 475.43Q598.967 474.053 597.144 472.592Q595.321 471.13 593.567 469.586C572.744 451.323 560.371 426.659 558.765 399.001C557.286 373.525 567.206 347.393 584.232 328.547C602.641 308.171 627.577 297.607 654.755 296.212Z"/>
	<path fill="#020202" d="M632.332 331.181C649.149 329.275 666.135 334.887 679.335 345.274C692.698 355.788 701.711 372.174 703.688 389.059Q703.876 390.584 703.987 392.117Q704.099 393.649 704.134 395.185Q704.17 396.722 704.128 398.258Q704.087 399.794 703.969 401.326Q703.852 402.858 703.658 404.382Q703.464 405.907 703.194 407.42Q702.925 408.932 702.58 410.43Q702.236 411.927 701.817 413.406Q701.399 414.884 700.907 416.34Q700.415 417.796 699.852 419.226Q699.288 420.655 698.654 422.055Q698.02 423.455 697.317 424.821Q696.614 426.188 695.844 427.517Q695.074 428.847 694.239 430.137Q693.403 431.427 692.505 432.673Q691.606 433.92 690.647 435.12C679.873 448.764 665.581 456.759 648.361 458.814C648.156 458.843 647.952 458.881 647.746 458.901C632.026 460.446 614.606 454.512 602.176 445.03C588.713 434.76 579.234 419.171 576.998 402.329C574.752 385.411 578.537 369.122 588.973 355.513C599.631 341.614 615.085 333.408 632.332 331.181Z"/>
	<path fill="#FDFDFD" d="M631.802 355.18Q632.556 355.109 633.312 355.074Q634.068 355.039 634.825 355.038Q635.582 355.038 636.338 355.073Q637.094 355.108 637.848 355.178Q638.601 355.248 639.351 355.353Q640.101 355.458 640.844 355.597Q641.588 355.737 642.325 355.911Q643.062 356.085 643.789 356.294Q644.517 356.502 645.234 356.743Q645.952 356.985 646.657 357.26Q647.362 357.535 648.054 357.842Q648.746 358.149 649.423 358.488Q650.099 358.828 650.76 359.198Q651.42 359.568 652.062 359.968Q652.705 360.369 653.328 360.799Q653.951 361.229 654.553 361.687Q655.242 362.203 655.906 362.752Q656.569 363.302 657.204 363.883Q657.839 364.465 658.445 365.077Q659.051 365.689 659.626 366.33Q660.201 366.971 660.743 367.64Q661.286 368.308 661.795 369.003Q662.304 369.698 662.778 370.417Q663.252 371.135 663.69 371.877Q664.128 372.618 664.529 373.38Q664.93 374.142 665.293 374.923Q665.656 375.704 665.98 376.502Q666.304 377.3 666.589 378.113Q666.873 378.926 667.117 379.752Q667.361 380.578 667.564 381.414Q667.767 382.251 667.928 383.097Q668.089 383.943 668.209 384.796Q668.326 385.603 668.402 386.416Q668.479 387.228 668.514 388.043Q668.549 388.858 668.544 389.674Q668.538 390.489 668.492 391.304Q668.445 392.118 668.358 392.929Q668.271 393.74 668.143 394.546Q668.015 395.352 667.847 396.15Q667.679 396.948 667.47 397.737Q667.262 398.526 667.015 399.303Q666.768 400.081 666.482 400.845Q666.195 401.609 665.871 402.357Q665.547 403.106 665.186 403.837Q664.825 404.569 664.427 405.281Q664.03 405.993 663.597 406.685Q663.164 407.377 662.697 408.045Q662.23 408.714 661.73 409.359C655.759 417.142 647.183 421.088 637.629 422.321C629.312 422.931 620.782 420.133 614.216 415.054Q613.562 414.554 612.933 414.023Q612.304 413.491 611.703 412.929Q611.101 412.367 610.528 411.776Q609.955 411.185 609.412 410.566Q608.869 409.947 608.357 409.302Q607.845 408.657 607.366 407.988Q606.887 407.318 606.442 406.626Q605.996 405.934 605.586 405.22Q605.176 404.506 604.801 403.773Q604.426 403.04 604.089 402.289Q603.751 401.538 603.451 400.772Q603.151 400.005 602.889 399.224Q602.627 398.444 602.404 397.651Q602.182 396.859 601.998 396.056Q601.815 395.253 601.672 394.443Q601.529 393.632 601.426 392.815C600.324 383.794 602.69 374.562 608.41 367.453C614.498 359.887 622.266 356.23 631.802 355.18Z"/>
	<path fill="#020202" d="M336.956 292.71C361.439 290.918 388.8 301.187 407.184 317.101C428.607 335.645 442.041 361.165 443.906 389.578C445.683 416.642 434.454 444.125 416.647 464.211C398.925 484.202 374.343 494.9 347.907 496.48C321.373 496.976 297.028 489.195 276.667 471.805Q275.681 470.977 274.717 470.125Q273.752 469.273 272.809 468.398Q271.865 467.522 270.944 466.623Q270.022 465.725 269.123 464.804Q268.224 463.882 267.349 462.939Q266.473 461.996 265.62 461.032Q264.768 460.067 263.94 459.082Q263.112 458.096 262.308 457.091Q261.505 456.086 260.727 455.06Q259.948 454.035 259.195 452.991Q258.443 451.947 257.716 450.885Q256.989 449.823 256.289 448.743Q255.589 447.663 254.915 446.566Q254.242 445.469 253.596 444.356Q252.95 443.242 252.332 442.114Q251.714 440.985 251.124 439.841Q250.534 438.697 249.972 437.539Q249.41 436.381 248.878 435.209Q248.345 434.037 247.841 432.853Q247.338 431.669 246.863 430.472Q246.389 429.275 245.945 428.067Q245.5 426.859 245.086 425.641Q244.672 424.422 244.287 423.194Q243.903 421.966 243.55 420.728Q243.196 419.49 242.873 418.244Q242.55 416.999 242.258 415.745Q241.966 414.491 241.705 413.231Q241.445 411.971 241.215 410.704Q240.985 409.438 240.787 408.166Q240.589 406.894 240.422 405.618Q240.255 404.342 240.12 403.062Q239.985 401.782 239.882 400.499Q239.784 399.28 239.716 398.059Q239.648 396.837 239.611 395.615Q239.573 394.392 239.566 393.169Q239.559 391.946 239.582 390.723Q239.604 389.5 239.658 388.278Q239.711 387.056 239.794 385.836Q239.877 384.616 239.991 383.398Q240.105 382.18 240.248 380.965Q240.392 379.751 240.565 378.54Q240.739 377.329 240.942 376.123Q241.146 374.917 241.379 373.716Q241.612 372.516 241.875 371.321Q242.138 370.126 242.431 368.939Q242.723 367.751 243.045 366.571Q243.366 365.391 243.717 364.219Q244.068 363.047 244.447 361.885Q244.827 360.722 245.235 359.569Q245.643 358.416 246.08 357.273Q246.517 356.131 246.981 354.999Q247.446 353.868 247.939 352.749Q248.431 351.629 248.951 350.522Q249.472 349.415 250.019 348.321Q250.566 347.227 251.141 346.147Q251.715 345.067 252.316 344.002Q252.916 342.937 253.543 341.886Q254.17 340.836 254.823 339.802Q255.476 338.767 256.154 337.749Q256.832 336.731 257.535 335.73Q258.238 334.73 258.966 333.746Q259.693 332.763 260.445 331.798Q261.197 330.833 261.972 329.888Q262.747 328.942 263.546 328.015C283.039 305.528 307.689 294.855 336.956 292.71Z"/>
	<path fill="#FDFDFD" d="M332.293 295.695C332.428 295.674 332.561 295.645 332.697 295.632C358.437 293.103 385.539 302.259 405.123 318.924Q406.096 319.736 407.049 320.572Q408.002 321.408 408.934 322.268Q409.865 323.128 410.775 324.011Q411.685 324.893 412.572 325.799Q413.459 326.704 414.324 327.632Q415.188 328.559 416.029 329.508Q416.869 330.456 417.686 331.426Q418.503 332.396 419.295 333.385Q420.087 334.375 420.854 335.384Q421.621 336.394 422.362 337.422Q423.104 338.45 423.819 339.497Q424.535 340.543 425.224 341.607Q425.912 342.671 426.574 343.752Q427.237 344.834 427.871 345.931Q428.506 347.028 429.113 348.141Q429.72 349.254 430.299 350.382Q430.878 351.51 431.428 352.652Q431.978 353.794 432.5 354.949Q433.021 356.104 433.514 357.272Q434.006 358.441 434.469 359.621Q434.932 360.801 435.365 361.992Q435.799 363.184 436.202 364.385Q436.605 365.587 436.978 366.799Q437.351 368.01 437.693 369.231Q438.035 370.452 438.347 371.68Q438.659 372.909 438.94 374.145Q439.22 375.381 439.47 376.624Q439.719 377.867 439.938 379.116Q440.156 380.365 440.343 381.618Q440.53 382.872 440.686 384.13Q440.841 385.388 440.965 386.65Q441.089 387.912 441.181 389.176C443.218 414.985 433.2 440.805 416.583 460.29Q415.838 461.173 415.072 462.038Q414.306 462.902 413.519 463.747Q412.732 464.593 411.925 465.419Q411.117 466.245 410.29 467.051Q409.462 467.857 408.615 468.642Q407.768 469.428 406.903 470.192Q406.037 470.956 405.152 471.699Q404.268 472.442 403.365 473.164Q402.463 473.885 401.543 474.583Q400.624 475.282 399.687 475.958Q398.751 476.634 397.798 477.287Q396.845 477.94 395.876 478.569Q394.908 479.199 393.924 479.804Q392.94 480.41 391.942 480.991Q390.944 481.572 389.932 482.129Q388.92 482.685 387.894 483.217Q386.869 483.748 385.83 484.255Q384.792 484.761 383.742 485.242Q382.692 485.723 381.63 486.177Q380.568 486.632 379.496 487.061Q378.423 487.49 377.34 487.892Q376.258 488.294 375.165 488.67Q374.073 489.046 372.972 489.395Q371.871 489.743 370.761 490.065Q369.652 490.387 368.535 490.681Q367.418 490.976 366.294 491.243Q365.171 491.51 364.041 491.749Q362.911 491.989 361.775 492.2Q360.64 492.412 359.499 492.596Q358.359 492.779 357.214 492.935Q356.07 493.091 354.922 493.219Q353.774 493.346 352.623 493.446Q351.411 493.547 350.197 493.618Q348.984 493.69 347.768 493.732Q346.553 493.774 345.337 493.788Q344.122 493.801 342.906 493.785Q341.69 493.768 340.475 493.723Q339.26 493.678 338.046 493.603Q336.833 493.529 335.621 493.425Q334.41 493.322 333.201 493.189Q331.992 493.056 330.787 492.894Q329.582 492.733 328.381 492.542Q327.18 492.351 325.984 492.132Q324.788 491.913 323.598 491.664Q322.408 491.416 321.224 491.14Q320.04 490.863 318.863 490.558Q317.686 490.253 316.516 489.92Q315.347 489.586 314.186 489.225Q313.025 488.864 311.873 488.475Q310.721 488.086 309.579 487.669Q308.436 487.253 307.304 486.809Q306.172 486.365 305.051 485.894Q303.93 485.423 302.821 484.925Q301.712 484.427 300.615 483.903Q299.518 483.379 298.433 482.828Q297.349 482.278 296.279 481.701Q295.208 481.125 294.152 480.523Q293.095 479.921 292.054 479.294Q291.012 478.666 289.986 478.014Q288.959 477.362 287.949 476.686Q286.939 476.009 285.945 475.309Q284.951 474.608 283.974 473.884Q282.998 473.159 282.039 472.412Q281.08 471.664 280.139 470.894C258.69 453.634 245.467 429.62 242.711 402.222C240.1 376.259 248.264 350.851 264.735 330.734C281.851 309.828 305.7 298.453 332.293 295.695Z"/>
	<path fill="#020202" d="M353.801 331.658C353.967 331.63 354.132 331.596 354.299 331.575C369.805 329.625 386.819 335.13 399.253 344.279C412.736 354.2 422.37 369.767 424.764 386.372C427.138 402.842 422.576 420.799 412.505 434.047Q411.572 435.276 410.58 436.459Q409.589 437.641 408.54 438.773Q407.492 439.906 406.39 440.986Q405.288 442.066 404.134 443.092Q402.981 444.117 401.779 445.084Q400.577 446.052 399.329 446.96Q398.081 447.868 396.79 448.714Q395.5 449.56 394.17 450.342Q392.839 451.124 391.472 451.841Q390.106 452.557 388.705 453.206Q387.305 453.855 385.875 454.435Q384.445 455.015 382.988 455.524Q381.532 456.034 380.052 456.472Q378.572 456.91 377.073 457.275Q375.574 457.64 374.058 457.932Q372.543 458.223 371.015 458.441C355.014 461.108 337.609 456.09 324.599 446.694Q323.307 445.778 322.062 444.799Q320.817 443.82 319.623 442.779Q318.429 441.739 317.288 440.64Q316.148 439.542 315.063 438.387Q313.979 437.233 312.954 436.026Q311.928 434.818 310.965 433.562Q310.001 432.305 309.102 431.001Q308.202 429.698 307.369 428.351Q306.536 427.004 305.771 425.617Q305.006 424.23 304.311 422.807Q303.617 421.383 302.994 419.927Q302.372 418.471 301.823 416.985Q301.274 415.5 300.8 413.988Q300.326 412.477 299.929 410.944Q299.531 409.411 299.21 407.86Q298.89 406.309 298.647 404.744Q298.41 403.171 298.251 401.588Q298.092 400.005 298.011 398.417Q297.93 396.828 297.928 395.237Q297.926 393.647 298.002 392.058Q298.078 390.469 298.233 388.885Q298.388 387.302 298.62 385.729Q298.853 384.155 299.163 382.595Q299.473 381.034 299.859 379.491Q300.246 377.948 300.708 376.426Q301.17 374.904 301.707 373.407Q302.244 371.909 302.854 370.44Q303.464 368.971 304.146 367.534Q304.828 366.097 305.58 364.695Q306.332 363.293 307.152 361.93Q307.972 360.567 308.859 359.246Q309.745 357.925 310.696 356.65C321.292 342.35 336.383 334.319 353.801 331.658Z"/>
	<path fill="#FDFDFD" d="M360.838 357.128C369.121 356.472 376.733 357.591 383.851 362.11Q384.564 362.559 385.253 363.042Q385.943 363.526 386.608 364.044Q387.272 364.561 387.91 365.111Q388.548 365.661 389.158 366.242Q389.767 366.823 390.347 367.434Q390.927 368.045 391.476 368.684Q392.024 369.323 392.54 369.989Q393.057 370.655 393.539 371.345Q394.021 372.036 394.468 372.75Q394.915 373.464 395.326 374.199Q395.737 374.934 396.111 375.689Q396.485 376.444 396.82 377.217Q397.156 377.989 397.452 378.778Q397.749 379.566 398.006 380.368Q398.262 381.17 398.479 381.984Q398.695 382.798 398.871 383.622Q399.038 384.44 399.164 385.265Q399.29 386.089 399.376 386.919Q399.462 387.749 399.507 388.583Q399.552 389.416 399.556 390.25Q399.56 391.085 399.523 391.918Q399.487 392.752 399.409 393.583Q399.331 394.414 399.213 395.24Q399.095 396.066 398.937 396.885Q398.778 397.704 398.58 398.515Q398.382 399.325 398.144 400.125Q397.906 400.925 397.629 401.712Q397.353 402.499 397.038 403.272Q396.723 404.045 396.37 404.801Q396.018 405.557 395.629 406.296Q395.24 407.034 394.815 407.752Q394.39 408.47 393.931 409.167C388.45 417.362 380.436 421.688 370.93 423.509C362.032 424.907 353.162 423.024 345.709 417.93C338.236 412.822 332.981 405.095 331.405 396.145Q331.265 395.34 331.164 394.528Q331.063 393.717 331.002 392.902Q330.942 392.087 330.921 391.27Q330.9 390.452 330.919 389.635Q330.938 388.818 330.997 388.003Q331.056 387.187 331.155 386.376Q331.254 385.564 331.392 384.759Q331.531 383.953 331.709 383.155Q331.886 382.357 332.103 381.569Q332.32 380.781 332.575 380.004Q332.829 379.227 333.122 378.464Q333.415 377.701 333.744 376.953Q334.074 376.205 334.44 375.474Q334.806 374.743 335.207 374.03Q335.608 373.318 336.044 372.626Q336.479 371.935 336.948 371.265C342.696 363.08 351.177 358.817 360.838 357.128Z"/>
</svg>
